<svg id="Layer_1" data-name="Layer 1" xmlns="http://www.w3.org/2000/svg" viewBox="0 0 1087 1079.81"><defs><style>.cls-1{fill:#dde6f1;}.cls-2{fill:#fff;}.cls-3{fill:#d1c6c6;}.cls-4{fill:#867878;}.cls-5{fill:#c7d6e7;}.cls-6{fill:#a8bcd2;}.cls-16,.cls-7{fill:#265073;}.cls-8{font-size:87.88px;fill:#cbd7e6;}.cls-16,.cls-25,.cls-8{font-family:MyriadPro-BoldSemiExt, Myriad Pro;}.cls-16,.cls-21,.cls-8{font-weight:700;}.cls-9{letter-spacing:-0.03em;}.cls-10{letter-spacing:-0.01em;}.cls-11{letter-spacing:-0.03em;}.cls-12{letter-spacing:-0.02em;}.cls-13{letter-spacing:-0.02em;}.cls-14{letter-spacing:-0.08em;}.cls-15{letter-spacing:-0.03em;}.cls-16{font-size:98.5px;letter-spacing:-0.02em;}.cls-17{letter-spacing:-0.01em;}.cls-18{letter-spacing:-0.01em;}.cls-19{letter-spacing:-0.01em;}.cls-20{letter-spacing:0em;}.cls-21{font-size:90.67px;fill:#295990;font-family:MyriadPro-SemiboldSemiExt, Myriad Pro;}.cls-22{letter-spacing:-0.01em;}.cls-23{letter-spacing:0em;}.cls-24{letter-spacing:0em;}.cls-25{font-size:152.25px;}.cls-26{letter-spacing:-0.01em;}.cls-27{letter-spacing:-0.01em;}</style></defs><title>fpsg-logo-white-background</title><path class="cls-1" d="M1147.68,998.48C1154,987.4,1160,976.91,1160,966.23s-6.17-21.12-12.55-32.19c-5.69-9.88-11.62-20-12.92-30.7-1.36-10.94,1.93-22.48,5.12-33.58,3.47-12.11,6.7-23.54,4.2-33.58-2.52-10.3-10.89-19-19.76-28.14-7.89-8.22-16.12-16.75-20-26.79-3.89-10.23-3.5-22.15-3.08-33.68.46-12.63.85-24.55-4-33.75s-15.12-15.74-25.83-22.48c-9.78-6.09-19.76-12.4-25.94-21.32s-8.72-20.59-11.08-31.86c-2.62-12.4-5-24.1-12-31.9s-18.32-11.62-30.34-15.58c-10.91-3.62-22.19-7.42-30.41-14.6s-13.29-17.91-18.23-28.27c-5.48-11.43-10.65-22.17-19.32-28.17s-20.53-6.87-33.12-7.9c-11.52-.91-23.37-1.88-33-6.9s-17.14-14.16-24.42-23c-8.09-9.78-15.74-19-25.62-22.8-8.5-3.18-21-1.81-33.9.33-11.72,1.87-24.36,3.56-33.87,1.23C729.46,458.07,720,451,710.83,444.2c-10.23-7.57-20-14.76-30.47-16-10.27-1.16-21.12,3.47-32.68,8.38-10.68,4.6-21.69,9.32-32.77,9.36s-22.21-4.63-32.9-9.13c-11.59-4.89-22.4-9.49-32.71-8.26-10.56,1.36-20.21,8.61-30.38,16.22-9.14,6.86-18.56,14-29,16.58-9.48,2.39-22.21.87-33.87-1-13-2-25.45-3.33-33.94-.1-9.9,3.83-17.44,13.12-25.45,23-7.26,8.94-14.7,18.07-24.26,23.12s-21.53,6.15-33,7.16c-12.59,1.06-24.48,2.1-33.09,8.09s-13.7,16.81-19.16,28.27c-4.88,10.42-9.94,21.11-18.06,28.41s-19.41,11-30.28,14.73c-12,4.08-23.32,8-30.28,15.8s-9.34,19.57-11.84,32c-2.27,11.24-4.65,22.94-10.82,31.9S169.78,688,160.09,694.2c-10.73,6.74-20.86,13.21-25.71,22.57s-4.3,21.15-3.78,33.78c.48,11.52.94,23.42-2.89,33.75-3.82,10-12,18.59-19.86,26.91-8.72,9.19-17.07,17.95-19.6,28.24-2.39,10.07.91,21.47,4.41,33.52,3.3,11.1,6.61,22.63,5.3,33.58-1.16,10.62-7,20.89-12.68,30.8C79,948.42,73,958.91,73,969.6s6.12,21.11,12.46,32.2c5.72,9.84,11.67,20.07,12.95,30.67,1.36,10.94-1.93,22.45-5.11,33.61-3.43,12.08-6.74,23.52-4.22,33.52,2.58,10.36,10.88,19,19.76,28.18,7.91,8.22,16.11,16.74,20,26.81,4,10.23,3.56,22.15,3.1,33.68-.37,12.62-.83,24.54,4.08,33.73s15.07,15.68,25.8,22.44c9.67,6.12,19.75,12.4,25.93,21.34s8.71,20.59,11.11,31.86c2.52,12.4,5,24.06,12,31.9s18.33,11.63,30.38,15.6c10.89,3.6,22.15,7.32,30.38,14.54s13.29,17.91,18.24,28.27c5.47,11.4,10.65,22.25,19.34,28.14s20.51,6.9,33.09,7.9c11.5,1,23.37,1.87,33,7s17.17,14.08,24.42,23c8.09,9.84,15.66,19.11,25.58,22.83,8.55,3.2,20.92,1.81,33.94-.29,11.7-1.91,24.36-3.56,33.88-1.23,10.42,2.52,19.88,9.55,29.1,16.35,10.23,7.65,19.88,14.8,30.47,16,10.33,1.16,21.06-3.43,32.63-8.39,10.73-4.57,21.74-9.29,32.83-9.36s22.16,4.63,32.88,9.13c11.57,4.92,22.42,9.52,32.72,8.22,10.57-1.29,20.17-8.51,30.38-16.22,9.07-6.86,18.52-14,29-16.55,9.48-2.39,22.22-.77,33.9,1,13,2,25.44,3.3,33.91.06,9.88-3.76,17.42-13.08,25.44-22.92,7.25-8.94,14.72-18.1,24.31-23.19s21.51-6.09,33-7.13c12.63-1.07,24.47-2.14,33.06-8.07s13.77-16.87,19.13-28.33c4.93-10.36,10-21.11,18.12-28.37s19.38-11.08,30.28-14.73c12-4.12,23.31-7.9,30.28-15.77s9.23-19.57,11.78-32c2.32-11.23,4.67-23,10.86-32s16.15-15.29,25.83-21.47c10.69-6.8,20.8-13.24,25.69-22.61s4.34-21.18,3.83-33.75c-.5-11.56-1-23.48,2.87-33.75,3.82-10,12-18.59,19.82-26.91,8.77-9.23,17.1-17.91,19.63-28.27,2.38-10-.92-21.44-4.44-33.52-3.27-11.11-6.64-22.57-5.34-33.58C1136.16,1018.62,1142,1008.39,1147.68,998.48Z" transform="translate(-73 -428)"/><circle class="cls-2" cx="543.5" cy="539.91" r="479"/><path class="cls-3" d="M649.79,1104.68l-13.42-43.21-5.64,1.75,20,64.42-16.92,5.26-20-64.42-5.64,1.75,25.44,81.9-16.92,5.26-25.44-81.9-5.64,1.75,20,64.42-16.92,5.25-24.39-78.52-5.64,1.75L569.17,1104l-16.92,5.26-20.15-64.87h0c-5.46-17.57,2.89-37.27,12.93-51.11L524.2,943l65.42-20.32,5.63,43.19c15.37,6,38.76,28.29,44,45.27l27.44,88.34Z" transform="translate(-73 -428)"/><path class="cls-4" d="M617.59,1085.74,643,1097.36l1.52-3.31-37.82-17.32,4.55-9.93L649,1084.11l1.52-3.31-48.08-22,4.55-9.94,48.08,22,1.52-3.31-37.82-17.32,4.55-9.94,46.1,21.11,1.52-3.31-19.87-9.1,4.55-9.93,38.09,17.44h0c10.32,4.72,15.93,16.67,18.15,27l31.68,11.14L726,1133l-22.15-15.19c-9.08,4.59-28.94,6.16-38.91,1.59L613,1095.67Z" transform="translate(-73 -428)"/><polygon class="cls-5" points="306.87 389.2 465.58 389.2 222.96 631.82 222.96 472.46 306.87 389.2"/><polygon class="cls-5" points="784.96 389.2 626.25 389.2 868.87 631.82 868.87 472.46 784.96 389.2"/><rect class="cls-6" x="481.64" y="840.78" width="113.88" height="113.88" transform="translate(-550.04 215.77) rotate(-45)"/><rect class="cls-7" x="440.83" y="952.64" width="113.88" height="456.94" transform="translate(-762.37 269.92) rotate(-45)"/><rect class="cls-7" x="642.31" y="840.78" width="113.88" height="113.88" transform="translate(-502.98 329.38) rotate(-45)"/><rect class="cls-6" x="608.97" y="1083.83" width="342.85" height="113.88" transform="translate(-651.07 457.95) rotate(-45)"/><polygon class="cls-7" points="545.81 469.64 465.28 550.16 626.33 550.16 545.81 469.64"/><text class="cls-8" transform="translate(256.97 627.92) rotate(45)"><tspan class="cls-9">S</tspan><tspan class="cls-10" x="49.42" y="0">U</tspan><tspan class="cls-11" x="113.6" y="0">R</tspan><tspan class="cls-12" x="166.35" y="0">V</tspan><tspan class="cls-13" x="226.08" y="0">I</tspan><tspan class="cls-14" x="250.32" y="0">V</tspan><tspan class="cls-15" x="305.02" y="0">A</tspan><tspan x="366.03" y="0">L</tspan></text><text class="cls-16" transform="translate(621.12 846.29) rotate(-45)">G<tspan class="cls-17" x="72.53" y="0">U</tspan><tspan class="cls-18" x="144.61" y="0">I</tspan><tspan class="cls-19" x="172.9" y="0">D</tspan><tspan class="cls-20" x="247.01" y="0">E</tspan></text><text class="cls-21" transform="translate(339.71 247.16)">the <tspan class="cls-22" x="160.48" y="0">f</tspan><tspan class="cls-23" x="190.04" y="0">os</tspan><tspan class="cls-24" x="286.97" y="0">t</tspan><tspan x="320.34" y="0">er </tspan><tspan class="cls-25"><tspan x="-30.73" y="94.81">pa</tspan><tspan class="cls-26" x="153.8" y="94.81">r</tspan><tspan x="214.39" y="94.81">e</tspan><tspan class="cls-27" x="300.26" y="94.81">n</tspan><tspan x="394.8" y="94.81">t</tspan></tspan></text></svg>